<?xml version='1.0' encoding='iso-8859-1'?>
<!DOCTYPE svg PUBLIC '-//W3C//DTD SVG 1.1//EN' 'http://www.w3.org/Graphics/SVG/1.1/DTD/svg11.dtd'>
<svg version="1.1" xmlns="http://www.w3.org/2000/svg" viewBox="0 0 297 297" xmlns:xlink="http://www.w3.org/1999/xlink" enable-background="new 0 0 297 297">
  <g>
    <path d="m196.995,24.844v-14.649c0-5.63-4.566-10.195-10.195-10.195-5.631,0-10.195,4.565-10.195,10.195v12.558c1.258-0.067 2.508-0.104 3.748-0.104 6.324-0.001 11.871,0.882 16.642,2.195z"/>
    <path d="m120.394,22.753v-12.558c0-5.63-4.565-10.195-10.194-10.195-5.631,0-10.195,4.565-10.195,10.195v14.649c4.771-1.313 10.318-2.196 16.641-2.196 1.242,0 2.492,0.037 3.748,0.105z"/>
    <path d="m107.433,88.379l5.99,25.163h70.152l5.99-25.163c17.881-19.109 19.439-39.104 19.441-39.887 0-0.814-0.318-1.583-0.896-2.161-0.383-0.379-9.707-9.41-27.758-9.41-9.043,0-18.783,2.295-28.951,6.82l-2.902,1.291-2.902-1.291c-10.166-4.525-19.908-6.82-28.951-6.82-18.055,0-27.377,9.033-27.766,9.418-0.57,0.57-0.889,1.339-0.889,2.156 0.004,0.78 1.559,20.775 19.442,39.884z"/>
    <path d="m194.796,127.814h-92.592c-14.482,13.875-22.514,33.01-22.514,54.73 0,20.359 7.383,76.807 19.447,107.943 1.52,3.926 5.295,6.512 9.504,6.512h79.715c4.209,0 7.986-2.586 9.506-6.512 12.063-31.137 19.447-87.584 19.447-107.943 0.001-21.72-8.031-40.855-22.513-54.73z"/>
  </g>
</svg>
