<?xml version="1.0" encoding="iso-8859-1"?>
<!-- Generator: Adobe Illustrator 19.0.0, SVG Export Plug-In . SVG Version: 6.00 Build 0)  -->
<svg version="1.1" id="Layer_1" xmlns="http://www.w3.org/2000/svg" xmlns:xlink="http://www.w3.org/1999/xlink" x="0px" y="0px"
	 viewBox="0 0 386 386" style="enable-background:new 0 0 386 386;" xml:space="preserve">
<g>
	<rect x="218" y="200.624" style="fill:#3E81C8;" width="160" height="28"/>
	<path style="fill:#F8A805;" d="M218,228.624v44.75c0,20.54,16.71,37.25,37.25,37.25h61.17c33.956,0,61.58-27.625,61.58-61.58
		v-20.42H218z"/>
	<path style="fill:#F8A805;" d="M8,228.624v20.42c0,33.956,27.625,61.58,61.58,61.58h61.17c20.54,0,37.25-16.71,37.25-37.25v-44.75
		H8z"/>
	<rect x="8" y="200.624" style="fill:#3E81C8;" width="160" height="28"/>
	<path d="M383.65,194.965L258.41,69.715c-2.29-2.28-5.73-2.97-8.72-1.73s-4.94,4.15-4.94,7.39v49.75c0,4.42,3.58,8,8,8
		c4.42,0,8-3.58,8-8v-30.44l97.94,97.94H27.31l97.94-97.94v30.44c0,4.42,3.58,8,8,8s8-3.58,8-8v-49.75c0-3.24-1.95-6.15-4.94-7.39
		s-6.43-0.55-8.72,1.73L2.35,194.965c-1.45,1.45-2.35,3.45-2.35,5.66v48.42c0,38.37,31.21,69.58,69.58,69.58h61.17
		c24.95,0,45.25-20.3,45.25-45.25v-19.75h34v19.75c0,24.95,20.3,45.25,45.25,45.25h61.17c38.37,0,69.58-31.21,69.58-69.58v-48.42
		C386,198.415,385.1,196.415,383.65,194.965z M160,273.375c0,16.13-13.12,29.25-29.25,29.25H69.58c-29.54,0-53.58-24.04-53.58-53.58
		v-12.42h144V273.375z M160,220.625H16v-12h144V220.625z M210,237.625h-34v-29h34V237.625z M370,249.045
		c0,29.54-24.04,53.58-53.58,53.58h-61.17c-16.13,0-29.25-13.12-29.25-29.25v-36.75h144V249.045z M370,220.625H226v-12h144V220.625z
		"/>
</g>
<g>
</g>
<g>
</g>
<g>
</g>
<g>
</g>
<g>
</g>
<g>
</g>
<g>
</g>
<g>
</g>
<g>
</g>
<g>
</g>
<g>
</g>
<g>
</g>
<g>
</g>
<g>
</g>
<g>
</g>
</svg>
