<?xml version="1.0" encoding="iso-8859-1"?>
<!-- Generator: Adobe Illustrator 18.0.0, SVG Export Plug-In . SVG Version: 6.00 Build 0)  -->
<!DOCTYPE svg PUBLIC "-//W3C//DTD SVG 1.1//EN" "http://www.w3.org/Graphics/SVG/1.1/DTD/svg11.dtd">
<svg version="1.1" id="Capa_1" xmlns="http://www.w3.org/2000/svg" xmlns:xlink="http://www.w3.org/1999/xlink" x="0px" y="0px"
	 viewBox="0 0 512 512" style="enable-background:new 0 0 512 512;" xml:space="preserve">
<g>
	<g>
		<path style="fill:#FFFFFF;" d="M87.348,304c-2.004,40-6.84,83-17.586,112h100.477c-10.746-29-15.582-72-17.586-112H87.348z"/>
		<path style="fill:#FFFFFF;" d="M176,256H64c-4.41,0-8,3.59-8,8c0,4.41,3.59,8,8,8h8h96h8c4.41,0,8-3.59,8-8
			C184,259.59,180.41,256,176,256z"/>
	</g>
	<path style="fill:#F69348;" d="M120,224c26.469,0,48-21.531,48-48c0-26.469-21.531-48-48-48c-26.469,0-48,21.531-48,48
		C72,202.469,93.531,224,120,224z"/>
	<path style="fill:#FFFFFF;" d="M264,144v272h160v-80c0-17.645-14.356-32-32-32c-26.469,0-48-21.531-48-48c0-26.469,21.531-48,48-48
		c0.59,0,1.18,0.031,1.766,0.098l62.324,6.926l20.031-30.051l-64.504-78.84C409.277,103.273,408,99.695,408,96V64h-32
		c-8.836,0-16-7.164-16-16V33.141C306,40.926,264,87.676,264,144z"/>
	<path style="fill:#003B54;" d="M391.266,240.016l70.969,7.887c5.938,0.641,11.758-2.055,15.078-7.027l32-48
		c3.902-5.852,3.523-13.563-0.93-19.008L440,90.289V48c0-8.836-7.164-16-16-16h-32V16c0-8.836-7.164-16-16-16
		c-79.402,0-144,64.598-144,144v272c-6,0-11.091,1.236-16,3.391c-3.309-1.453-6.878-2.334-10.579-2.842
		c-8.698-9.713-17.672-59.721-20.707-113.568C202.582,298.982,216,283.055,216,264c0-19.557-14.131-35.814-32.704-39.262
		C193.725,211.227,200,194.352,200,176c0-44.113-35.887-80-80-80c-44.113,0-80,35.887-80,80c0,18.351,6.275,35.226,16.704,48.738
		C38.131,228.186,24,244.443,24,264c0,19.055,13.418,34.982,31.286,38.98c-3.035,53.848-12.009,103.855-20.707,113.568
		C15.104,419.225,0,435.801,0,456v40c0,8.836,7.164,16,16,16h192h16h256c8.836,0,16-7.164,16-16v-40c0-22.055-18-40-40-40v-80
		c0-35.289-28.711-64-64-64c-8.824,0-16-7.176-16-16C376,247.426,382.781,240.402,391.266,240.016z M87.348,304h65.305
		c2.004,40,6.84,83,17.586,112H69.762C80.508,387,85.344,344,87.348,304z M120,128c26.469,0,48,21.531,48,48
		c0,26.469-21.531,48-48,48c-26.469,0-48-21.531-48-48C72,149.531,93.531,128,120,128z M64,256h112c4.41,0,8,3.59,8,8
		c0,4.41-3.59,8-8,8h-8H72h-8c-4.41,0-8-3.59-8-8C56,259.59,59.59,256,64,256z M32,456c0-4.41,3.59-8,8-8h152.809
		c-0.527,3-0.809,5.262-0.809,8v24H32V456z M464,456v24H240v-24c0-2.738-0.281-5-0.809-8H248h192h16C460.41,448,464,451.59,464,456z
		 M392,304c17.645,0,32,14.355,32,32v80H264V144c0-56.324,42-103.074,96-110.859V48c0,8.836,7.164,16,16,16h32v32
		c0,3.695,1.277,7.273,3.617,10.133l64.504,78.84l-20.031,30.051l-62.324-6.926C393.18,208.031,392.59,208,392,208
		c-26.469,0-48,21.531-48,48C344,282.469,365.531,304,392,304z"/>
	<path style="fill:#6EBF5D;" d="M464,480v-24c0-4.41-3.59-8-8-8h-16H248h-8.809c0.527,3,0.809,5.262,0.809,8v24H464z"/>
	<path style="fill:#6EBF5D;" d="M192,456c0-2.738,0.281-5,0.809-8H40c-4.41,0-8,3.59-8,8v24h160V456z"/>
</g>
<g>
</g>
<g>
</g>
<g>
</g>
<g>
</g>
<g>
</g>
<g>
</g>
<g>
</g>
<g>
</g>
<g>
</g>
<g>
</g>
<g>
</g>
<g>
</g>
<g>
</g>
<g>
</g>
<g>
</g>
</svg>
