<?xml version="1.0" encoding="iso-8859-1"?>
<!-- Generator: Adobe Illustrator 18.0.0, SVG Export Plug-In . SVG Version: 6.00 Build 0)  -->
<!DOCTYPE svg PUBLIC "-//W3C//DTD SVG 1.1//EN" "http://www.w3.org/Graphics/SVG/1.1/DTD/svg11.dtd">
<svg version="1.1" id="Capa_1" xmlns="http://www.w3.org/2000/svg" xmlns:xlink="http://www.w3.org/1999/xlink" x="0px" y="0px"
	 viewBox="0 0 376.108 376.108" style="enable-background:new 0 0 376.108 376.108;" xml:space="preserve">
<g>
	<g id="XMLID_27_">
		<g>
			<path style="fill:#4D4D4D;" d="M373.201,161.698c1.8,4.07,2.66,8.32,2.66,12.5c0,11.86-6.87,23.2-18.39,28.31l-95.65,42.43
				c-4.01,1.78-8.27,2.67-12.53,2.67c-3.76,0-7.52-0.69-11.14-2.08c-7.7-2.97-13.8-8.77-17.14-16.32l-42.43-95.65
				c-3.35-7.55-3.56-15.96-0.59-23.67c2.97-7.71,8.76-13.8,16.32-17.15l95.65-42.43c7.55-3.34,15.95-3.55,23.66-0.58
				c7.71,2.97,13.8,8.76,17.15,16.32L373.201,161.698z M359.791,179.968c1.53-3.97,1.43-8.3-0.3-12.19l-42.43-95.65
				c-1.72-3.89-4.86-6.88-8.83-8.41c-1.86-0.71-3.8-1.07-5.74-1.07c-2.19,0-4.38,0.46-6.45,1.38l-95.65,42.43
				c-3.89,1.72-6.88,4.86-8.41,8.83c-1.53,3.97-1.42,8.3,0.31,12.19l42.43,95.65c1.72,3.89,4.86,6.87,8.83,8.4s8.3,1.43,12.19-0.3
				l95.65-42.43C355.281,187.068,358.261,183.938,359.791,179.968z"/>
			<path style="fill:#86A9F7;" d="M359.491,167.778c1.73,3.89,1.83,8.22,0.3,12.19s-4.51,7.1-8.4,8.83l-95.65,42.43
				c-3.89,1.73-8.22,1.83-12.19,0.3s-7.11-4.51-8.83-8.4l-42.43-95.65c-1.73-3.89-1.84-8.22-0.31-12.19
				c1.53-3.97,4.52-7.11,8.41-8.83l95.65-42.43c2.07-0.92,4.26-1.38,6.45-1.38c1.94,0,3.88,0.36,5.74,1.07
				c3.97,1.53,7.11,4.52,8.83,8.41L359.491,167.778z M285.691,149.578c0.81-4.03-1.03-8.28-4.52-10.45
				c-3.65-2.27-8.48-1.9-11.75,0.88c-3.14,2.66-4.34,7.1-2.95,10.98c1.41,3.93,5.24,6.64,9.42,6.64
				C280.611,157.628,284.761,154.188,285.691,149.578z"/>
			<path style="fill:#4D4D4D;" d="M281.171,139.128c3.49,2.17,5.33,6.42,4.52,10.45c-0.93,4.61-5.08,8.05-9.8,8.05
				c-4.18,0-8.01-2.71-9.42-6.64c-1.39-3.88-0.19-8.32,2.95-10.98C272.691,137.228,277.521,136.858,281.171,139.128z"/>
			<path style="fill:#4D4D4D;" d="M166.751,192.898v104.64c0,17.05-13.88,30.93-30.93,30.93H31.181
				c-17.06,0-30.93-13.88-30.93-30.93v-104.64c0-17.05,13.87-30.93,30.93-30.93h104.64
				C152.871,161.968,166.751,175.848,166.751,192.898z M151.751,297.538v-104.64c0-8.78-7.15-15.93-15.93-15.93H31.181
				c-8.78,0-15.93,7.15-15.93,15.93v104.64c0,8.78,7.15,15.93,15.93,15.93h104.64C144.601,313.468,151.751,306.318,151.751,297.538z
				"/>
			<path style="fill:#E5D665;" d="M151.751,192.898v104.64c0,8.78-7.15,15.93-15.93,15.93H31.181c-8.78,0-15.93-7.15-15.93-15.93
				v-104.64c0-8.78,7.15-15.93,15.93-15.93h104.64C144.601,176.968,151.751,184.118,151.751,192.898z M132.011,247.008
				c0.73-3.99-1.12-8.14-4.56-10.28c-3.7-2.29-8.6-1.89-11.87,0.97c-3.02,2.64-4.15,6.95-2.87,10.73c1.35,4.01,5.23,6.79,9.46,6.79
				C126.941,255.218,131.151,251.698,132.011,247.008z M131.981,286.988c0.81-4.04-1.03-8.28-4.53-10.45
				c-3.65-2.25-8.47-1.91-11.75,0.87c-3.15,2.66-4.31,7.12-2.94,10.99c1.41,3.93,5.23,6.63,9.41,6.63
				C126.871,295.028,131.061,291.608,131.981,286.988z M131.961,207.438c0.85-4.05-0.98-8.35-4.51-10.53
				c-3.7-2.28-8.6-1.89-11.87,0.98c-3.05,2.68-4.19,7.09-2.81,10.91c1.41,3.91,5.23,6.61,9.4,6.61
				C126.861,215.408,131.001,212.018,131.961,207.438z M54.631,207.358c0.82-4.04-1.04-8.27-4.53-10.45
				c-3.6-2.24-8.35-1.91-11.62,0.77c-3.18,2.61-4.45,7.05-3.12,10.94c1.36,4,5.22,6.79,9.46,6.79
				C49.541,215.408,53.691,211.968,54.631,207.358z M54.631,247.168c0.82-4.04-1.04-8.27-4.53-10.44
				c-3.61-2.23-8.34-1.91-11.62,0.76c-3.19,2.6-4.44,7.06-3.12,10.94c1.37,4.01,5.22,6.79,9.46,6.79
				C49.541,255.218,53.691,251.788,54.631,247.168z M54.631,286.988c0.82-4.04-1.04-8.28-4.53-10.45
				c-3.61-2.23-8.34-1.91-11.62,0.76c-3.19,2.6-4.44,7.06-3.12,10.94c1.36,4.02,5.22,6.79,9.46,6.79
				C49.541,295.028,53.691,291.608,54.631,286.988z"/>
			<path style="fill:#4D4D4D;" d="M127.451,236.728c3.44,2.14,5.29,6.29,4.56,10.28c-0.86,4.69-5.07,8.21-9.84,8.21
				c-4.23,0-8.11-2.78-9.46-6.79c-1.28-3.78-0.15-8.09,2.87-10.73C118.851,234.838,123.751,234.438,127.451,236.728z"/>
			<path style="fill:#4D4D4D;" d="M127.451,276.538c3.5,2.17,5.34,6.41,4.53,10.45c-0.92,4.62-5.11,8.04-9.81,8.04
				c-4.18,0-8-2.7-9.41-6.63c-1.37-3.87-0.21-8.33,2.94-10.99C118.981,274.628,123.801,274.288,127.451,276.538z"/>
			<path style="fill:#4D4D4D;" d="M127.451,196.908c3.53,2.18,5.36,6.48,4.51,10.53c-0.96,4.58-5.1,7.97-9.79,7.97
				c-4.17,0-7.99-2.7-9.4-6.61c-1.38-3.82-0.24-8.23,2.81-10.91C118.851,195.018,123.751,194.628,127.451,196.908z"/>
			<path style="fill:#4D4D4D;" d="M50.101,196.908c3.49,2.18,5.35,6.41,4.53,10.45c-0.94,4.61-5.09,8.05-9.81,8.05
				c-4.24,0-8.1-2.79-9.46-6.79c-1.33-3.89-0.06-8.33,3.12-10.94C41.751,194.998,46.501,194.668,50.101,196.908z"/>
			<path style="fill:#4D4D4D;" d="M50.101,236.728c3.49,2.17,5.35,6.4,4.53,10.44c-0.94,4.62-5.09,8.05-9.81,8.05
				c-4.24,0-8.09-2.78-9.46-6.79c-1.32-3.88-0.07-8.34,3.12-10.94C41.761,234.818,46.491,234.498,50.101,236.728z"/>
			<path style="fill:#4D4D4D;" d="M50.101,276.538c3.49,2.17,5.35,6.41,4.53,10.45c-0.94,4.62-5.09,8.04-9.81,8.04
				c-4.24,0-8.1-2.77-9.46-6.79c-1.32-3.88-0.07-8.34,3.12-10.94C41.761,274.628,46.491,274.309,50.101,276.538z"/>
		</g>
		<g>
		</g>
	</g>
</g>
<g>
</g>
<g>
</g>
<g>
</g>
<g>
</g>
<g>
</g>
<g>
</g>
<g>
</g>
<g>
</g>
<g>
</g>
<g>
</g>
<g>
</g>
<g>
</g>
<g>
</g>
<g>
</g>
<g>
</g>
</svg>
