<?xml version="1.0" encoding="iso-8859-1"?>
<!-- Generator: Adobe Illustrator 19.0.0, SVG Export Plug-In . SVG Version: 6.00 Build 0)  -->
<svg version="1.1" id="Layer_1" xmlns="http://www.w3.org/2000/svg" xmlns:xlink="http://www.w3.org/1999/xlink" x="0px" y="0px"
	 viewBox="0 0 511.999 511.999" style="enable-background:new 0 0 511.999 511.999;" xml:space="preserve">
<path style="fill:#027EA8;" d="M393.908,267.82h63.044c26.113,0,47.282,21.169,47.282,47.282l0,0
	c0,26.113-21.169,47.282-47.282,47.282h-63.044"/>
<path style="fill:#84DCCF;" d="M409.668,291.461h47.282c13.056,0,23.641,10.584,23.641,23.641l0,0
	c0,13.057-10.585,23.641-23.641,23.641h-47.282"/>
<path style="fill:#F15A24;" d="M354.505,378.146h-189.13c-34.817,0-63.044-28.225-63.044-63.044l0,0
	c0-34.817,28.225-63.044,63.044-63.044h189.13c34.817,0,63.044,28.225,63.044,63.044l0,0
	C417.549,349.921,389.323,378.146,354.505,378.146z"/>
<path style="fill:#FBB03B;" d="M417.549,315.102L417.549,315.102c0,34.817-28.225,63.044-63.044,63.044h-189.13
	c-34.817,0-63.044-28.225-63.044-63.044l0,0"/>
<circle style="fill:#FFFFFF;" cx="181.135" cy="315.103" r="39.398"/>
<circle style="fill:#84DCCF;" cx="181.135" cy="315.103" r="15.76"/>
<path d="M46.159,307.11h-6.87v-15.536h6.87c4.964,0,9.003-4.039,9.003-9.003c0-4.138-2.932-7.739-7.129-8.758
	C19.752,266.944,0,241.797,0,212.657c0-47.736,38.836-86.572,86.572-86.572s86.572,38.836,86.572,86.572h-15.536
	c0-39.169-31.867-71.036-71.036-71.036c-39.169,0-71.036,31.867-71.036,71.036c0,21.948,14.871,40.887,36.164,46.058
	c11.186,2.716,18.999,12.526,18.999,23.854C70.698,296.101,59.691,307.11,46.159,307.11z"/>
<g>
	<rect x="244.085" y="283.442" style="fill:#FFFFFF;" width="15.536" height="15.536"/>
	<rect x="267.907" y="283.442" style="fill:#FFFFFF;" width="15.536" height="15.536"/>
	<rect x="291.728" y="283.442" style="fill:#FFFFFF;" width="15.536" height="15.536"/>
</g>
<path d="M456.95,260.052h-57.975c-12.165-9.846-27.637-15.76-44.471-15.76H172.626v-15.739H157.09v16.239
	c-35.153,4.118-62.526,34.07-62.526,70.31c0,39.045,31.765,70.811,70.811,70.811h189.129c16.833,0,32.306-5.915,44.471-15.761
	h57.974c30.356,0,55.05-24.695,55.05-55.05C512,284.748,487.305,260.052,456.95,260.052z M354.505,370.378h-189.13
	c-27.866,0-50.967-20.73-54.728-47.575h23.957c3.688,22.359,23.144,39.47,46.531,39.47c26.01,0,47.169-21.161,47.169-47.169
	c0-26.01-21.161-47.169-47.169-47.169c-23.34,0-42.762,17.043-46.506,39.334h-23.964c3.819-26.78,26.891-47.44,54.71-47.44h78.714
	v16.368h15.536v-16.369h8.286v16.368h15.536v-16.368h8.286v16.368h15.536v-16.368h47.237c30.48,0,55.276,24.796,55.276,55.276
	C409.781,345.582,384.984,370.378,354.505,370.378z M149.502,315.102c0-17.443,14.191-31.634,31.635-31.634
	s31.634,14.191,31.634,31.634c0,17.443-14.191,31.634-31.634,31.634S149.502,332.546,149.502,315.102z M423.5,299.229h33.45
	c8.753,0,15.873,7.12,15.873,15.873s-7.12,15.873-15.873,15.873H423.5c1.174-5.107,1.817-10.415,1.817-15.873
	C425.316,309.644,424.674,304.336,423.5,299.229z M456.95,354.616h-43.712c1.744-2.584,3.31-5.296,4.707-8.105h39.005
	c17.319,0,31.409-14.09,31.409-31.409s-14.09-31.409-31.409-31.409h-39.005c-1.397-2.81-2.963-5.521-4.707-8.105h43.712
	c21.788,0,39.514,17.726,39.514,39.514C496.464,336.891,478.738,354.616,456.95,354.616z"/>
<path d="M181.137,338.631c-12.973,0-23.528-10.555-23.528-23.528c0-12.974,10.555-23.529,23.528-23.529
	c12.973,0,23.528,10.555,23.528,23.529C204.665,328.076,194.11,338.631,181.137,338.631z M181.137,307.11
	c-4.407,0-7.993,3.586-7.993,7.994c0,4.407,3.586,7.993,7.993,7.993c4.407,0,7.993-3.586,7.993-7.993
	C189.13,310.695,185.544,307.11,181.137,307.11z"/>
<g>
</g>
<g>
</g>
<g>
</g>
<g>
</g>
<g>
</g>
<g>
</g>
<g>
</g>
<g>
</g>
<g>
</g>
<g>
</g>
<g>
</g>
<g>
</g>
<g>
</g>
<g>
</g>
<g>
</g>
</svg>
