<?xml version="1.0" encoding="iso-8859-1"?>
<!-- Generator: Adobe Illustrator 19.0.0, SVG Export Plug-In . SVG Version: 6.00 Build 0)  -->
<svg version="1.1" id="Layer_1" xmlns="http://www.w3.org/2000/svg" xmlns:xlink="http://www.w3.org/1999/xlink" x="0px" y="0px"
	 viewBox="0 0 512 512" style="enable-background:new 0 0 512 512;" xml:space="preserve">
<g transform="translate(1 1)">
	<path style="fill:#FCC309;" d="M442.733,114.2H67.267c-33.28,0-59.733,26.453-59.733,59.733h154.453
		C187.587,152.6,220.013,139.8,255,139.8s68.267,12.8,93.013,34.133h52.053c0-18.773,15.36-34.133,34.133-34.133
		c18.773,0,34.133,15.36,34.133,34.133h34.133C502.467,140.653,476.013,114.2,442.733,114.2"/>
	<path style="fill:#FFDD09;" d="M468.333,173.933c0,18.773-15.36,34.133-34.133,34.133c-18.773,0-34.133-15.36-34.133-34.133
		h-52.053c35.84,29.867,57.173,76.8,50.347,128.853c-7.68,65.707-61.44,118.613-127.147,126.293
		c-87.04,9.387-161.28-58.88-161.28-144.213c0-44.373,20.48-84.48,52.053-110.933H7.533v235.52c0,11.093,9.387,20.48,20.48,20.48
		H482.84c11.093,0,20.48-9.387,20.48-20.48v-235.52H468.333z"/>
	<g>
		<path style="fill:#FCC309;" d="M109.933,284.867c0-17.92,3.413-34.987,9.387-51.2H7.533V370.2h130.56
			C120.173,346.307,109.933,316.44,109.933,284.867"/>
		<path style="fill:#FCC309;" d="M390.68,233.667c5.973,16.213,9.387,33.28,9.387,51.2c0,31.573-10.24,61.44-28.16,85.333h130.56
			V233.667H390.68z"/>
	</g>
	<path style="fill:#FD9808;" d="M451.267,114.2h-34.133c33.28,0,59.733,26.453,59.733,59.733v235.52
		c0,11.093-9.387,20.48-20.48,20.48h34.133c11.093,0,11.947-9.387,11.947-20.48v-235.52
		C502.467,140.653,484.547,114.2,451.267,114.2"/>
	<path style="fill:#FFFFFF;" d="M58.733,114.2h34.133c-33.28,0-59.733,26.453-59.733,59.733v235.52
		c0,11.093,9.387,20.48,20.48,20.48H19.48c-11.093,0-11.947-9.387-11.947-20.48v-235.52C7.533,140.653,25.453,114.2,58.733,114.2"/>
	<polygon style="fill:#1CD759;" points="84.333,114.2 152.6,114.2 152.6,80.067 84.333,80.067 	"/>
	<path style="fill:#54C9FD;" d="M468.333,173.933c0,18.773-15.36,34.133-34.133,34.133c-18.773,0-34.133-15.36-34.133-34.133
		S415.427,139.8,434.2,139.8C452.973,139.8,468.333,155.16,468.333,173.933"/>
	<path style="fill:#33A9F8;" d="M434.2,139.8c-4.267,0-8.533,0.853-12.8,2.56c12.8,5.12,21.333,17.067,21.333,31.573
		c0,14.507-8.533,26.453-21.333,31.573c4.267,1.707,8.533,2.56,12.8,2.56c18.773,0,34.133-15.36,34.133-34.133
		S452.973,139.8,434.2,139.8"/>
	<path style="fill:#1CD759;" d="M255,429.933c-80.213,0-145.067-64.853-145.067-145.067S174.787,139.8,255,139.8
		s145.067,64.853,145.067,145.067S335.213,429.933,255,429.933"/>
	<path style="fill:#15A143;" d="M255,139.8c-4.267,0-8.533,0-12.8,0.853c74.24,5.973,132.267,68.267,132.267,144.213
		S316.44,423.107,242.2,429.08c4.267,0,8.533,0.853,12.8,0.853c80.213,0,145.067-64.853,145.067-145.067S335.213,139.8,255,139.8"/>
	<path style="fill:#1CD759;" d="M255,387.267c-56.32,0-102.4-46.08-102.4-102.4s46.08-102.4,102.4-102.4s102.4,46.08,102.4,102.4
		S311.32,387.267,255,387.267"/>
	<path style="fill:#15A143;" d="M255,182.467c-4.267,0-8.533,0-12.8,0.853c50.347,5.973,89.6,49.493,89.6,101.547
		s-39.253,95.573-89.6,101.547c4.267,0.853,8.533,0.853,12.8,0.853c56.32,0,102.4-46.08,102.4-102.4S311.32,182.467,255,182.467"/>
	<path d="M138.093,378.733H7.533C2.413,378.733-1,375.32-1,370.2V233.667c0-5.12,3.413-8.533,8.533-8.533H119.32
		c2.56,0,5.12,1.707,6.827,3.413c1.707,2.56,1.707,5.12,0.853,7.68c-5.973,15.36-8.533,31.573-8.533,47.787
		c0,29.013,9.387,56.32,26.453,80.213c1.707,2.56,2.56,5.973,0.853,8.533C144.067,375.32,141.507,378.733,138.093,378.733z
		 M16.067,361.667H121.88c-13.653-23.04-20.48-49.493-20.48-76.8c0-14.507,1.707-29.013,5.973-42.667H16.067V361.667z"/>
	<path d="M502.467,378.733h-130.56c-3.413,0-5.973-1.707-7.68-4.267s-0.853-5.973,0.853-8.533
		c17.067-23.893,26.453-51.2,26.453-80.213c0-16.213-3.413-32.427-8.533-47.787c-0.853-2.56-0.853-5.973,0.853-7.68
		c1.707-2.56,4.267-3.413,6.827-3.413h111.787c5.12,0,8.533,3.413,8.533,8.533v136.533C511,375.32,507.587,378.733,502.467,378.733z
		 M388.12,361.667h105.813V242.2h-91.307c4.267,13.653,5.973,28.16,5.973,42.667C408.6,312.173,401.773,338.627,388.12,361.667z"/>
	<path d="M255,395.8c-61.44,0-110.933-49.493-110.933-110.933S193.56,173.933,255,173.933s110.933,49.493,110.933,110.933
		S316.44,395.8,255,395.8z M255,191c-52.053,0-93.867,41.813-93.867,93.867s41.813,93.867,93.867,93.867
		s93.867-41.813,93.867-93.867S307.053,191,255,191z"/>
	<path d="M195.267,293.4c-5.12,0-8.533-3.413-8.533-8.533c0-37.547,30.72-68.267,68.267-68.267c5.12,0,8.533,3.413,8.533,8.533
		c0,5.12-3.413,8.533-8.533,8.533c-28.16,0-51.2,23.04-51.2,51.2C203.8,289.987,200.387,293.4,195.267,293.4z"/>
	<path d="M152.6,122.733H84.333c-5.12,0-8.533-3.413-8.533-8.533V80.067c0-5.12,3.413-8.533,8.533-8.533H152.6
		c5.12,0,8.533,3.413,8.533,8.533V114.2C161.133,119.32,157.72,122.733,152.6,122.733z M92.867,105.667h51.2V88.6h-51.2V105.667z"/>
	<path d="M50.2,267.8c0,5.12-3.413,8.533-8.533,8.533s-8.533-3.413-8.533-8.533c0-5.12,3.413-8.533,8.533-8.533
		S50.2,262.68,50.2,267.8"/>
	<path d="M84.333,267.8c0,5.12-3.413,8.533-8.533,8.533s-8.533-3.413-8.533-8.533c0-5.12,3.413-8.533,8.533-8.533
		C80.92,259.267,84.333,262.68,84.333,267.8"/>
	<path d="M434.2,216.6c-23.893,0-42.667-18.773-42.667-42.667s18.773-42.667,42.667-42.667c23.893,0,42.667,18.773,42.667,42.667
		S458.093,216.6,434.2,216.6z M434.2,148.333c-14.507,0-25.6,11.093-25.6,25.6c0,14.507,11.093,25.6,25.6,25.6
		c14.507,0,25.6-11.093,25.6-25.6C459.8,159.427,448.707,148.333,434.2,148.333z"/>
	<path d="M502.467,182.467h-34.133c-5.12,0-8.533-3.413-8.533-8.533c0-14.507-11.093-25.6-25.6-25.6
		c-14.507,0-25.6,11.093-25.6,25.6c0,5.12-3.413,8.533-8.533,8.533h-52.053c-1.707,0-4.267-0.853-5.12-1.707
		c-24.747-21.333-55.467-32.427-87.893-32.427s-63.147,11.093-87.893,32.427c-1.707,1.707-3.413,1.707-5.12,1.707H7.533
		c-5.12,0-8.533-3.413-8.533-8.533c0-37.547,30.72-68.267,68.267-68.267h375.467c37.547,0,68.267,30.72,68.267,68.267
		C511,179.053,507.587,182.467,502.467,182.467z M476.013,165.4h17.067c-4.267-23.893-24.747-42.667-50.347-42.667H67.267
		c-25.6,0-46.08,18.773-50.347,42.667h141.653c27.307-22.187,61.44-34.133,96.427-34.133s69.12,11.947,96.427,34.133h40.96
		c4.267-19.627,21.333-34.133,41.813-34.133S471.747,145.773,476.013,165.4z"/>
	<path d="M255,438.467c-0.853,0-1.707,0-2.56,0H28.013C11.8,438.467-1,425.667-1,409.453v-235.52c0-5.12,3.413-8.533,8.533-8.533
		h154.453c3.413,0,6.827,2.56,7.68,5.973c0.853,3.413,0,6.827-2.56,9.387c-30.72,25.6-48.64,64-48.64,104.107
		c0,38.4,16.213,75.947,45.227,101.547c24.747,22.187,56.32,34.133,88.747,34.987h3.413c4.267,0,9.387,0,14.507-0.853
		c62.293-6.827,112.64-57.173,119.467-118.613c5.973-46.08-11.947-91.307-47.787-121.173c-2.56-2.56-3.413-5.973-2.56-9.387
		c0.853-3.413,4.267-5.973,7.68-5.973h52.907c5.12,0,8.533,3.413,8.533,8.533c0,14.507,11.093,25.6,25.6,25.6
		c14.507,0,25.6-11.093,25.6-25.6c0-5.12,3.413-8.533,8.533-8.533h34.133c5.12,0,8.533,3.413,8.533,8.533v235.52
		c0,16.213-12.8,29.013-29.013,29.013h-225.28C255.853,438.467,255.853,438.467,255,438.467z M324.973,421.4h157.013
		c6.827,0,11.947-5.12,11.947-11.947V182.467h-17.92C471.747,202.093,454.68,216.6,434.2,216.6s-37.547-14.507-41.813-34.133h-23.04
		c29.013,32.427,43.52,76.8,38.4,121.173C400.92,354.84,369.347,398.36,324.973,421.4z M16.067,182.467v226.987
		c0,6.827,5.12,11.947,11.947,11.947h157.013c-11.093-5.973-22.187-13.653-31.573-22.187c-32.427-29.013-51.2-70.827-51.2-114.347
		c0-38.4,13.653-74.24,39.253-102.4L16.067,182.467L16.067,182.467z"/>
	<path d="M400.067,122.733c-5.12,0-8.533-3.413-8.533-8.533v-8.533c0-5.12,3.413-8.533,8.533-8.533s8.533,3.413,8.533,8.533v8.533
		C408.6,119.32,405.187,122.733,400.067,122.733z"/>
	<path d="M365.933,122.733c-5.12,0-8.533-3.413-8.533-8.533v-8.533c0-5.12,3.413-8.533,8.533-8.533s8.533,3.413,8.533,8.533v8.533
		C374.467,119.32,371.053,122.733,365.933,122.733z"/>
</g>
<g>
</g>
<g>
</g>
<g>
</g>
<g>
</g>
<g>
</g>
<g>
</g>
<g>
</g>
<g>
</g>
<g>
</g>
<g>
</g>
<g>
</g>
<g>
</g>
<g>
</g>
<g>
</g>
<g>
</g>
</svg>
