<?xml version="1.0" encoding="iso-8859-1"?>
<!-- Generator: Adobe Illustrator 19.0.0, SVG Export Plug-In . SVG Version: 6.00 Build 0)  -->
<svg version="1.1" id="Layer_1" xmlns="http://www.w3.org/2000/svg" xmlns:xlink="http://www.w3.org/1999/xlink" x="0px" y="0px"
	 viewBox="0 0 512.853 512.853" style="enable-background:new 0 0 512.853 512.853;" xml:space="preserve">
<g transform="translate(1 1)">
	<g>
		<path style="fill:#FFE100;" d="M502.467,255.556c0,136.533-110.933,247.467-247.467,247.467S7.533,392.089,7.533,255.556
			S118.467,8.089,255,8.089S502.467,119.023,502.467,255.556"/>
		<polygon style="fill:#FFE100;" points="161.133,255.556 109.933,170.223 161.133,84.889 246.467,84.889 297.667,170.223 
			246.467,255.556 		"/>
		<polygon style="fill:#FFE100;" points="297.667,340.889 246.467,255.556 297.667,170.223 383,170.223 434.2,255.556 383,340.889 
					"/>
		<polygon style="fill:#FFE100;" points="161.133,426.223 109.933,340.889 161.133,255.556 246.467,255.556 297.667,340.889 
			246.467,426.223 		"/>
		<path style="fill:#FFE100;" d="M24.6,340.889l-0.853,1.707c20.48,54.613,59.733,99.84,110.933,128.853l26.453-45.227l-51.2-85.333
			H24.6z"/>
		<path style="fill:#FFE100;" d="M24.6,170.223l-4.267,7.68c-8.533,23.893-12.8,50.347-12.8,77.653s4.267,52.907,12.8,77.653
			l4.267,7.68h85.333l51.2-85.333l-51.2-85.333H24.6z"/>
		<path style="fill:#FFE100;" d="M23.747,168.516l0.853,1.707h85.333l51.2-85.333l-27.307-45.227
			C83.48,67.823,44.227,113.903,23.747,168.516"/>
		<path style="fill:#FFE100;" d="M255,8.089c-44.373,0-85.333,11.093-121.173,31.573l27.307,45.227h85.333l44.373-74.24
			C278.893,8.943,266.947,8.089,255,8.089"/>
		<path style="fill:#FFE100;" d="M290.84,10.649l-44.373,74.24l51.2,85.333H383l51.2-85.333
			C396.653,45.636,347.16,19.183,290.84,10.649"/>
		<path style="fill:#FFE100;" d="M383,170.223l51.2,85.333h68.267c0-66.56-25.6-126.293-68.267-170.667L383,170.223z"/>
		<path style="fill:#FFE100;" d="M434.2,426.223c42.667-44.373,68.267-104.107,68.267-170.667H434.2L383,340.889L434.2,426.223z"/>
		<path style="fill:#FFE100;" d="M290.84,500.463c56.32-8.533,105.813-34.987,143.36-74.24L383,340.889h-85.333l-51.2,85.333
			L290.84,500.463z"/>
		<path style="fill:#FFE100;" d="M255,503.023c11.947,0,23.893-0.853,35.84-2.56l-44.373-74.24h-85.333l-27.307,45.227
			C169.667,491.929,210.627,503.023,255,503.023"/>
	</g>
	<path style="fill:#FFA800;" d="M255,8.089c-4.267,0-8.533,0-12.8,0c130.56,6.827,234.667,115.2,234.667,247.467
		S372.76,496.196,242.2,503.023c4.267,0,8.533,0,12.8,0c136.533,0,247.467-110.933,247.467-247.467S391.533,8.089,255,8.089"/>
	<path style="fill:#FFFFFF;" d="M255,8.089c4.267,0,8.533,0,12.8,0c-130.56,6.827-234.667,115.2-234.667,247.467
		S137.24,496.196,267.8,503.023c-4.267,0-8.533,0-12.8,0c-136.533,0-247.467-110.933-247.467-247.467S118.467,8.089,255,8.089"/>
	<g>
		<polygon style="fill:#00DA6C;" points="203.8,127.556 217.453,154.863 249.027,161.689 226.84,182.169 231.96,212.889 
			203.8,198.383 175.64,212.889 180.76,182.169 158.573,161.689 190.147,154.863 		"/>
		<polygon style="fill:#00DA6C;" points="203.8,298.223 217.453,325.529 249.027,332.356 226.84,352.836 231.96,383.556 
			203.8,369.049 175.64,383.556 180.76,352.836 158.573,332.356 190.147,325.529 		"/>
		<polygon style="fill:#00DA6C;" points="340.333,212.889 353.987,240.196 385.56,247.023 363.373,267.503 368.493,298.223 
			340.333,283.716 312.173,298.223 317.293,267.503 295.107,247.023 326.68,240.196 		"/>
	</g>
	<path d="M255,511.556c-140.8,0-256-115.2-256-256s115.2-256,256-256s256,115.2,256,256S395.8,511.556,255,511.556z M255,16.623
		c-131.413,0-238.933,107.52-238.933,238.933S123.587,494.489,255,494.489s238.933-107.52,238.933-238.933
		S386.413,16.623,255,16.623z"/>
	<path d="M246.467,264.089h-85.333c-3.413,0-5.973-1.707-7.68-4.267l-51.2-85.333c-1.707-2.56-1.707-5.973,0-8.533l51.2-85.333
		c1.707-2.56,4.267-4.267,7.68-4.267h85.333c3.413,0,5.973,1.707,7.68,4.267l51.2,85.333c1.707,2.56,1.707,5.973,0,8.533
		l-51.2,85.333C252.44,262.383,249.88,264.089,246.467,264.089z M166.253,247.023H242.2l46.08-76.8l-46.08-76.8h-75.947l-46.08,76.8
		L166.253,247.023z"/>
	<path d="M383,349.423h-85.333c-3.413,0-5.973-1.707-7.68-4.267l-51.2-85.333c-1.707-2.56-1.707-5.973,0-8.533l51.2-85.333
		c1.707-2.56,4.267-4.267,7.68-4.267H383c3.413,0,5.973,1.707,7.68,4.267l51.2,85.333c1.707,2.56,1.707,5.973,0,8.533l-51.2,85.333
		C388.973,347.716,386.413,349.423,383,349.423z M302.787,332.356h75.947l46.08-76.8l-46.08-76.8h-75.947l-46.08,76.8
		L302.787,332.356z"/>
	<path d="M246.467,434.756h-85.333c-3.413,0-5.973-1.707-7.68-4.267l-51.2-85.333c-1.707-2.56-1.707-5.973,0-8.533l51.2-85.333
		c1.707-2.56,4.267-4.267,7.68-4.267h85.333c3.413,0,5.973,1.707,7.68,4.267l51.2,85.333c1.707,2.56,1.707,5.973,0,8.533
		l-51.2,85.333C252.44,433.049,249.88,434.756,246.467,434.756z M166.253,417.689H242.2l46.08-76.8l-46.08-76.8h-75.947l-46.08,76.8
		L166.253,417.689z"/>
	<path d="M231.96,221.423c-1.707,0-2.56,0-4.267-0.853l-23.893-12.8l-23.893,12.8c-2.56,1.707-5.973,0.853-9.387-0.853
		c-2.56-1.707-4.267-5.12-3.413-8.533l4.267-26.453L152.6,167.663c-2.56-2.56-3.413-5.12-2.56-8.533
		c0.853-3.413,3.413-5.12,6.827-5.973l27.307-5.973l11.947-23.893c2.56-5.973,11.947-5.973,15.36,0l11.947,23.893l27.307,5.973
		c3.413,0.853,5.973,3.413,6.827,5.973c0.853,3.413,0,6.827-2.56,8.533l-18.773,17.067l4.267,26.453
		c0.853,3.413-0.853,6.827-3.413,8.533C235.373,220.569,233.667,221.423,231.96,221.423z M203.8,189.849c1.707,0,2.56,0,4.267,0.853
		l12.8,6.827l-2.56-14.507c-0.853-2.56,0.853-5.973,2.56-7.68l10.24-8.533l-14.507-3.413c-2.56-0.853-4.267-2.56-5.973-4.267
		l-6.827-12.8l-5.973,12.8c-0.853,2.56-3.413,4.267-5.973,4.267l-14.507,3.413l10.24,8.533c2.56,1.707,3.413,5.12,2.56,7.68
		l-3.413,14.507l12.8-6.827C201.24,189.849,202.093,189.849,203.8,189.849z"/>
	<path d="M231.96,392.089c-1.707,0-2.56,0-4.267-0.853l-23.893-12.8l-23.893,12.8c-2.56,1.707-5.973,0.853-9.387-0.853
		c-2.56-1.707-4.267-5.12-3.413-8.533l4.267-26.453L152.6,338.329c-2.56-2.56-3.413-5.12-2.56-8.533
		c0.853-3.413,3.413-5.12,6.827-5.973l27.307-5.973l11.947-23.893c2.56-5.973,11.947-5.973,15.36,0l11.947,23.893l27.307,5.973
		c3.413,0.853,5.973,3.413,6.827,5.973c0.853,3.413,0,6.827-2.56,8.533l-18.773,17.067l4.267,26.453
		c0.853,3.413-0.853,6.827-3.413,8.533C235.373,391.236,233.667,392.089,231.96,392.089z M203.8,360.516c1.707,0,2.56,0,4.267,0.853
		l12.8,6.827l-2.56-14.507c-0.853-2.56,0.853-5.973,2.56-7.68l10.24-8.533l-14.507-3.413c-2.56-0.853-4.267-2.56-5.973-4.267
		l-6.827-12.8l-5.973,12.8c-0.853,2.56-3.413,4.267-5.973,4.267l-14.507,3.413l10.24,8.533c2.56,1.707,3.413,5.12,2.56,7.68
		l-3.413,14.507l12.8-6.827C201.24,360.516,202.093,360.516,203.8,360.516z"/>
	<path d="M368.493,306.756c-1.707,0-2.56,0-4.267-0.853l-23.893-12.8l-23.893,12.8c-2.56,1.707-5.973,0.853-9.387-0.853
		c-2.56-1.707-4.267-5.12-3.413-8.533l4.267-26.453l-18.773-17.067c-2.56-2.56-3.413-5.12-2.56-8.533
		c0.853-3.413,3.413-5.12,6.827-5.973l27.307-5.973l11.947-23.893c2.56-5.973,11.947-5.973,15.36,0l11.947,23.893l27.307,5.973
		c3.413,0.853,5.973,3.413,6.827,5.973c0.853,3.413,0,6.827-2.56,8.533l-18.773,17.067l4.267,26.453
		c0.853,3.413-0.853,6.827-3.413,8.533C371.907,305.903,370.2,306.756,368.493,306.756z M340.333,275.183
		c1.707,0,2.56,0,4.267,0.853l12.8,6.827l-2.56-14.507c-0.853-2.56,0.853-5.973,2.56-7.68l10.24-8.533l-14.507-3.413
		c-2.56-0.853-4.267-2.56-5.973-4.267l-6.827-12.8l-5.973,12.8c-0.853,2.56-3.413,4.267-5.973,4.267l-14.507,3.413l10.24,8.533
		c2.56,1.707,3.413,5.12,2.56,7.68l-3.413,14.507l12.8-6.827C337.773,275.183,338.627,275.183,340.333,275.183z"/>
	<path d="M133.827,479.983c-1.707,0-2.56,0-4.267-0.853c-52.907-29.867-93.013-76.8-114.347-133.12
		c-0.853-2.56-0.853-5.12,0.853-7.68l0.853-1.707c1.707-2.56,4.267-4.267,7.68-4.267h85.333c3.413,0,5.973,1.707,7.68,4.267
		l51.2,85.333c1.707,2.56,1.707,5.973,0,8.533l-27.307,45.227C139.8,478.276,137.24,479.983,133.827,479.983z M34.84,349.423
		c19.627,46.08,52.907,84.48,95.573,110.08l20.48-33.28l-46.08-76.8H34.84z"/>
	<path d="M109.933,349.423H24.6c-3.413,0-5.973-1.707-7.68-4.267l-4.267-7.68c0-0.853-0.853-0.853-0.853-1.707
		C3.267,310.169-1,282.863-1,255.556s4.267-54.613,12.8-80.213c0-0.853,0.853-0.853,0.853-1.707l4.267-7.68
		c1.707-2.56,4.267-4.267,7.68-4.267h85.333c3.413,0,5.973,1.707,7.68,4.267l51.2,85.333c1.707,2.56,1.707,5.973,0,8.533
		l-51.2,85.333C115.907,347.716,113.347,349.423,109.933,349.423z M29.72,332.356h75.947l46.08-76.8l-46.08-76.8H29.72l-1.707,2.56
		c-7.68,23.893-11.947,48.64-11.947,74.24s4.267,50.347,11.947,74.24L29.72,332.356z"/>
	<path d="M109.933,178.756H24.6c-3.413,0-5.973-1.707-7.68-4.267l-0.853-1.707c-1.707-2.56-1.707-5.12-0.853-7.68
		c21.333-56.32,62.293-103.253,114.347-133.12c4.267-2.56,9.387-0.853,11.093,3.413l27.307,45.227c1.707,2.56,1.707,5.973,0,8.533
		l-51.2,85.333C115.907,177.049,113.347,178.756,109.933,178.756z M34.84,161.689h69.973l46.08-76.8l-20.48-33.28
		C88.6,77.209,54.467,115.609,34.84,161.689z"/>
	<path d="M246.467,93.423h-85.333c-3.413,0-5.973-1.707-7.68-4.267L127,43.929c-0.853-1.707-1.707-4.267-0.853-6.827
		c0.853-2.56,1.707-4.267,4.267-5.12c48.64-27.307,105.813-38.4,162.133-29.867c2.56,0,5.12,2.56,6.827,5.12s0.853,5.973,0,7.68
		L255,89.156C252.44,91.716,249.88,93.423,246.467,93.423z M166.253,76.356H242.2l34.987-58.88
		c-46.08-4.267-91.307,5.12-130.56,25.6L166.253,76.356z"/>
	<path d="M383,178.756h-85.333c-3.413,0-5.973-1.707-7.68-4.267l-51.2-85.333c-1.707-2.56-1.707-5.973,0-8.533l44.373-74.24
		c1.707-2.56,5.12-4.267,8.533-4.267c56.32,8.533,108.373,35.84,148.48,76.8c2.56,2.56,3.413,6.827,0.853,10.24l-51.2,85.333
		C388.973,177.049,386.413,178.756,383,178.756z M302.787,161.689h75.947l45.227-75.093c-34.987-34.987-80.213-58.027-128-66.56
		l-39.253,64.853L302.787,161.689z"/>
	<path d="M502.467,264.089H434.2c-3.413,0-5.973-1.707-7.68-4.267l-51.2-85.333c-1.707-2.56-1.707-5.973,0-8.533l51.2-85.333
		c1.707-2.56,4.267-4.267,6.827-4.267c2.56,0,5.12,0.853,6.827,2.56C485.4,126.703,511,189.849,511,255.556
		C511,260.676,507.587,264.089,502.467,264.089z M439.32,247.023h54.613c-1.707-54.613-22.187-106.667-58.027-147.627
		l-42.667,70.827L439.32,247.023z"/>
	<path d="M434.2,434.756h-0.853c-2.56,0-5.12-1.707-5.973-4.267l-51.2-85.333c-1.707-2.56-1.707-5.973,0-8.533l51.2-85.333
		c1.707-2.56,4.267-4.267,7.68-4.267h68.267c5.12,0,8.533,3.413,8.533,8.533c0,65.707-24.747,128.853-70.827,176.64
		C438.467,433.903,436.76,434.756,434.2,434.756z M393.24,340.889l42.667,70.827c35.84-40.96,56.32-93.013,58.027-147.627H439.32
		L393.24,340.889z"/>
	<path d="M290.84,508.996c-2.56,0-5.973-1.707-7.68-4.267l-44.373-74.24c-1.707-2.56-1.707-5.973,0-8.533l51.2-85.333
		c1.707-2.56,4.267-4.267,7.68-4.267H383c3.413,0,5.973,1.707,7.68,4.267l51.2,85.333c1.707,3.413,1.707,7.68-0.853,10.24
		c-39.253,40.96-92.16,68.267-148.48,76.8C291.693,508.996,291.693,508.996,290.84,508.996z M256.707,426.223l39.253,64.853
		c47.787-8.533,93.013-31.573,128-66.56l-46.08-75.093h-75.947L256.707,426.223z"/>
	<path d="M255,511.556c-43.52,0-87.04-11.093-125.44-32.427c-1.707-0.853-3.413-3.413-4.267-5.12c-0.853-2.56,0-4.267,0.853-6.827
		l27.307-45.227c1.707-2.56,4.267-4.267,7.68-4.267h85.333c3.413,0,5.973,1.707,7.68,4.267l44.373,74.24
		c1.707,2.56,1.707,5.12,0,7.68c-0.853,2.56-3.413,4.267-6.827,5.12C279.747,510.703,266.947,511.556,255,511.556z M145.773,468.036
		c40.107,20.48,85.333,29.867,130.56,25.6l-34.987-58.88H165.4L145.773,468.036z"/>
</g>
<g>
</g>
<g>
</g>
<g>
</g>
<g>
</g>
<g>
</g>
<g>
</g>
<g>
</g>
<g>
</g>
<g>
</g>
<g>
</g>
<g>
</g>
<g>
</g>
<g>
</g>
<g>
</g>
<g>
</g>
</svg>
