<?xml version="1.0" encoding="iso-8859-1"?>
<!-- Generator: Adobe Illustrator 19.0.0, SVG Export Plug-In . SVG Version: 6.00 Build 0)  -->
<svg version="1.1" id="Layer_1" xmlns="http://www.w3.org/2000/svg" xmlns:xlink="http://www.w3.org/1999/xlink" x="0px" y="0px"
	 viewBox="0 0 502.173 502.173" style="enable-background:new 0 0 502.173 502.173;" xml:space="preserve">
<polygon style="fill:#7C7C7C;" points="465.655,251.666 448.855,246.066 423.255,204.466 476.055,221.266 "/>
<rect x="224.029" y="51.665" transform="matrix(-0.951 -0.3093 0.3093 -0.951 378.0877 562.4812)" style="fill:#FFCD50;" width="19.201" height="399.213"/>
<polyline style="fill:#EFB22B;" points="286.455,58.066 304.855,64.466 232.855,284.466 "/>
<circle style="fill:#FFCD50;" cx="172.055" cy="439.666" r="14.4"/>
<path style="fill:#EFB22B;" d="M185.655,433.266c4,7.2,0.8,16-6.4,20s-16,0.8-20-6.4"/>
<path style="fill:#FFCD50;" d="M312.055,62.866c-1.6,4-5.6,6.4-10.4,4.8l-16-4.8c-4-1.6-6.4-5.6-4.8-10.4l0,0
	c1.6-4,5.6-6.4,10.4-4.8l16,4.8C311.255,54.066,313.655,58.866,312.055,62.866L312.055,62.866z"/>
<rect x="280.065" y="98.151" transform="matrix(-0.951 -0.3093 0.3093 -0.951 693.053 402.9767)" style="fill:#DDDDDD;" width="196.807" height="96.803"/>
<rect x="463.914" y="155.624" transform="matrix(-0.951 -0.3093 0.3093 -0.951 865.5143 544.463)" style="fill:#AAAAAA;" width="24.001" height="96.003"/>
<polygon style="fill:#CCCCCC;" points="456.855,222.866 269.655,162.066 373.655,153.266 486.455,130.866 "/>
<rect x="295.176" y="73.267" transform="matrix(-0.951 -0.3092 0.3092 -0.951 573.5928 262.2377)" style="fill:#5E6664;" width="24.8" height="24.8"/>
<polygon style="fill:#2F423F;" points="315.255,100.466 292.055,93.266 309.655,87.666 323.255,77.266 "/>
<rect x="311.217" y="103.812" transform="matrix(-0.951 -0.3092 0.3092 -0.951 595.4427 326.7917)" style="fill:#5E6664;" width="24.8" height="24.8"/>
<polygon style="fill:#2F423F;" points="331.255,131.666 308.055,123.666 324.855,118.066 338.455,108.466 "/>
<rect x="342.355" y="88.586" transform="matrix(-0.9509 -0.3094 0.3094 -0.9509 660.8554 306.7797)" style="fill:#5E6664;" width="24.799" height="24.799"/>
<polygon style="fill:#2F423F;" points="362.455,115.666 339.255,108.466 356.055,102.866 369.655,92.466 "/>
<rect x="357.661" y="118.875" transform="matrix(-0.951 -0.3093 0.3093 -0.951 681.3763 370.571)" style="fill:#5E6664;" width="24.801" height="24.801"/>
<polygon style="fill:#2F423F;" points="377.655,146.866 354.455,138.866 372.055,133.266 385.655,123.666 "/>
<rect x="388.787" y="103.646" transform="matrix(-0.951 -0.3091 0.3091 -0.951 746.8549 350.4182)" style="fill:#5E6664;" width="24.799" height="24.799"/>
<polygon style="fill:#2F423F;" points="408.855,131.666 385.655,123.666 403.255,118.066 416.855,107.666 "/>
<rect x="404.847" y="134.176" transform="matrix(-0.951 -0.3092 0.3092 -0.951 768.7261 414.9811)" style="fill:#5E6664;" width="24.8" height="24.8"/>
<polygon style="fill:#2F423F;" points="424.855,162.066 401.655,154.066 418.455,148.466 432.055,138.866 "/>
<rect x="436.06" y="118.948" transform="matrix(-0.951 -0.3093 0.3093 -0.951 834.3064 394.9615)" style="fill:#5E6664;" width="24.801" height="24.801"/>
<polygon style="fill:#2F423F;" points="456.055,146.866 432.855,138.866 449.655,133.266 463.255,123.666 "/>
<rect x="451.288" y="149.248" transform="matrix(-0.951 -0.3093 0.3093 -0.951 854.6453 458.7853)" style="fill:#5E6664;" width="24.801" height="24.801"/>
<polygon style="fill:#2F423F;" points="471.255,177.266 448.055,169.266 465.655,163.666 479.255,154.066 "/>
<rect x="280.798" y="119.042" transform="matrix(-0.9509 -0.3094 0.3094 -0.9509 531.3382 347.1514)" style="fill:#5E6664;" width="24.799" height="24.799"/>
<polygon style="fill:#2F423F;" points="300.855,146.866 277.655,138.866 294.455,133.266 308.055,123.666 "/>
<rect x="296.078" y="149.34" transform="matrix(-0.9509 -0.3094 0.3094 -0.9509 551.7736 410.9889)" style="fill:#5E6664;" width="24.799" height="24.799"/>
<polygon style="fill:#2F423F;" points="316.055,177.266 292.855,169.266 309.655,164.466 324.055,154.066 "/>
<rect x="327.266" y="134.096" transform="matrix(-0.951 -0.3093 0.3093 -0.951 617.3676 390.8646)" style="fill:#5E6664;" width="24.801" height="24.801"/>
<polygon style="fill:#2F423F;" points="347.255,162.066 324.055,154.066 341.655,148.466 355.255,138.866 "/>
<rect x="343.297" y="164.631" transform="matrix(-0.951 -0.3092 0.3092 -0.951 639.2267 455.3691)" style="fill:#5E6664;" width="24.8" height="24.8"/>
<polygon style="fill:#2F423F;" points="363.255,192.466 340.055,185.266 356.855,179.666 370.455,169.266 "/>
<rect x="374.435" y="149.396" transform="matrix(-0.9509 -0.3095 0.3095 -0.9509 704.601 435.3733)" style="fill:#5E6664;" width="24.8" height="24.8"/>
<polygon style="fill:#2F423F;" points="394.455,177.266 371.255,169.266 388.055,163.666 401.655,154.066 "/>
<rect x="389.469" y="180.456" transform="matrix(-0.9509 -0.3094 0.3094 -0.9509 724.3452 500.5899)" style="fill:#5E6664;" width="24.799" height="24.799"/>
<polygon style="fill:#2F423F;" points="409.655,207.666 386.455,200.466 404.055,194.866 417.655,184.466 "/>
<rect x="420.866" y="164.47" transform="matrix(-0.951 -0.3091 0.3091 -0.951 790.6401 479.0032)" style="fill:#5E6664;" width="24.799" height="24.799"/>
<polygon style="fill:#2F423F;" points="440.855,192.466 417.655,184.466 435.255,178.866 448.855,169.266 "/>
<rect x="467.254" y="179.649" transform="matrix(-0.9509 -0.3095 0.3095 -0.9509 876.3176 523.1212)" style="fill:#5E6664;" width="24.8" height="24.8"/>
<polygon style="fill:#2F423F;" points="487.255,207.666 464.055,199.666 481.655,194.066 495.255,184.466 "/>
<rect x="452.801" y="226.227" transform="matrix(-0.9509 -0.3094 0.3094 -0.9509 833.7399 609.4817)" style="fill:#5E6664;" width="24.799" height="24.799"/>
<polygon style="fill:#2F423F;" points="472.855,254.066 449.655,246.066 466.455,240.466 480.055,230.866 "/>
<rect x="436.666" y="195.785" transform="matrix(-0.951 -0.3093 0.3093 -0.951 811.7252 545.0541)" style="fill:#5E6664;" width="24.801" height="24.801"/>
<polygon style="fill:#2F423F;" points="456.855,222.866 433.655,215.666 450.455,210.066 464.055,199.666 "/>
<polygon style="fill:#7C7C7C;" points="36.855,251.666 53.655,246.066 79.255,204.466 26.455,221.266 "/>
<rect x="259.197" y="51.455" transform="matrix(0.951 -0.3093 0.3093 0.951 -64.4711 95.4463)" style="fill:#FFCD50;" width="19.201" height="399.213"/>
<polyline style="fill:#EFB22B;" points="216.055,58.066 197.655,64.466 269.655,284.466 "/>
<circle style="fill:#FFCD50;" cx="330.455" cy="439.666" r="14.4"/>
<path style="fill:#EFB22B;" d="M316.855,433.266c-4,7.2-0.8,16,6.4,20c7.2,4,16,0.8,20-6.4"/>
<path style="fill:#FFCD50;" d="M190.455,62.866c1.6,4,5.6,6.4,10.4,4.8l16-4.8c4-1.6,6.4-5.6,4.8-10.4l0,0c-1.6-4-5.6-6.4-10.4-4.8
	l-16,4.8C191.255,54.066,188.855,58.866,190.455,62.866L190.455,62.866z"/>
<rect x="26.113" y="98.098" transform="matrix(0.951 -0.3093 0.3093 0.951 -39.2056 45.6949)" style="fill:#DDDDDD;" width="196.807" height="96.803"/>
<rect x="14.258" y="154.817" transform="matrix(0.951 -0.3093 0.3093 0.951 -61.4423 18.0661)" style="fill:#AAAAAA;" width="24.001" height="96.003"/>
<polygon style="fill:#CCCCCC;" points="45.655,222.866 232.855,162.066 128.855,153.266 16.055,130.866 "/>
<rect x="182.471" y="72.755" transform="matrix(0.951 -0.3093 0.3093 0.951 -16.7827 64.447)" style="fill:#5E6664;" width="24.801" height="24.801"/>
<polygon style="fill:#2F423F;" points="187.255,100.466 210.455,93.266 192.855,87.666 179.255,77.266 "/>
<rect x="166.64" y="103.637" transform="matrix(0.951 -0.3092 0.3092 0.951 -27.1051 61.0451)" style="fill:#5E6664;" width="24.8" height="24.8"/>
<polygon style="fill:#2F423F;" points="171.255,131.666 194.455,123.666 177.655,118.066 164.055,108.466 "/>
<rect x="135.256" y="88.18" transform="matrix(0.951 -0.3093 0.3093 0.951 -23.8686 50.6003)" style="fill:#5E6664;" width="24.801" height="24.801"/>
<polygon style="fill:#2F423F;" points="140.055,115.666 163.255,108.466 146.455,102.866 132.855,92.466 "/>
<rect x="120.099" y="118.804" transform="matrix(0.951 -0.3092 0.3092 0.951 -34.0752 47.398)" style="fill:#5E6664;" width="24.8" height="24.8"/>
<polygon style="fill:#2F423F;" points="124.855,146.866 148.055,138.866 130.455,133.266 116.855,123.666 "/>
<rect x="88.71" y="103.348" transform="matrix(0.951 -0.3092 0.3092 0.951 -30.8344 36.9352)" style="fill:#5E6664;" width="24.8" height="24.8"/>
<polygon style="fill:#2F423F;" points="93.655,131.666 116.855,123.666 99.255,118.066 85.655,107.666 "/>
<rect x="72.837" y="134.225" transform="matrix(0.951 -0.3091 0.3091 0.951 -41.1485 33.5282)" style="fill:#5E6664;" width="24.799" height="24.799"/>
<polygon style="fill:#2F423F;" points="77.655,162.066 100.855,154.066 84.055,148.466 70.455,138.866 "/>
<rect x="41.435" y="118.759" transform="matrix(0.951 -0.3093 0.3093 0.951 -37.9266 23.0817)" style="fill:#5E6664;" width="24.801" height="24.801"/>
<polygon style="fill:#2F423F;" points="46.455,146.866 69.655,138.866 52.855,133.266 39.255,123.666 "/>
<rect x="26.349" y="149.426" transform="matrix(0.9509 -0.3094 0.3094 0.9509 -48.1689 19.93)" style="fill:#5E6664;" width="24.799" height="24.799"/>
<polygon style="fill:#2F423F;" points="31.255,177.266 54.455,169.266 36.855,163.666 23.255,154.066 "/>
<rect x="197.186" y="118.884" transform="matrix(0.9509 -0.3095 0.3095 0.9509 -30.3414 71.313)" style="fill:#5E6664;" width="24.8" height="24.8"/>
<polygon style="fill:#2F423F;" points="201.655,146.866 224.855,138.866 208.055,133.266 194.455,123.666 "/>
<rect x="182.061" y="149.487" transform="matrix(0.951 -0.3093 0.3093 0.951 -40.5354 68.0826)" style="fill:#5E6664;" width="24.801" height="24.801"/>
<polygon style="fill:#2F423F;" points="186.455,177.266 209.655,169.266 192.855,164.466 178.455,154.066 "/>
<rect x="150.666" y="134.036" transform="matrix(0.951 -0.3093 0.3093 0.951 -37.2959 57.6147)" style="fill:#5E6664;" width="24.801" height="24.801"/>
<polygon style="fill:#2F423F;" points="155.255,162.066 178.455,154.066 160.855,148.466 147.255,138.866 "/>
<rect x="134.787" y="164.923" transform="matrix(0.951 -0.3091 0.3091 0.951 -47.6037 54.1808)" style="fill:#5E6664;" width="24.799" height="24.799"/>
<polygon style="fill:#2F423F;" points="139.255,192.466 162.455,185.266 145.655,179.666 132.055,169.266 "/>
<rect x="103.399" y="149.515" transform="matrix(0.9509 -0.3094 0.3094 0.9509 -44.4156 43.7745)" style="fill:#5E6664;" width="24.799" height="24.799"/>
<polygon style="fill:#2F423F;" points="108.055,177.266 131.255,169.266 114.455,163.666 100.855,154.066 "/>
<rect x="88.04" y="179.377" transform="matrix(0.9509 -0.3094 0.3094 0.9509 -54.4087 40.4876)" style="fill:#5E6664;" width="24.799" height="24.799"/>
<polygon style="fill:#2F423F;" points="92.855,207.666 116.055,200.466 98.455,194.866 84.855,184.466 "/>
<rect x="56.866" y="164.641" transform="matrix(0.951 -0.3091 0.3091 0.951 -51.3328 30.0808)" style="fill:#5E6664;" width="24.799" height="24.799"/>
<polygon style="fill:#2F423F;" points="61.655,192.466 84.855,184.466 67.255,178.866 53.655,169.266 "/>
<rect x="10.233" y="179.73" transform="matrix(0.9509 -0.3095 0.3095 0.9509 -58.353 16.4387)" style="fill:#5E6664;" width="24.8" height="24.8"/>
<polygon style="fill:#2F423F;" points="15.255,207.666 38.455,199.666 20.855,194.066 7.255,184.466 "/>
<rect x="25.175" y="226.032" transform="matrix(0.951 -0.3093 0.3093 0.951 -71.9022 23.3124)" style="fill:#5E6664;" width="24.801" height="24.801"/>
<polygon style="fill:#2F423F;" points="29.655,254.066 52.855,246.066 36.055,240.466 22.455,230.866 "/>
<rect x="40.747" y="194.767" transform="matrix(0.9509 -0.3094 0.3094 0.9509 -61.4913 26.6099)" style="fill:#5E6664;" width="24.799" height="24.799"/>
<polygon style="fill:#2F423F;" points="45.655,222.866 68.855,215.666 52.055,210.066 38.455,199.666 "/>
<g>
</g>
<g>
</g>
<g>
</g>
<g>
</g>
<g>
</g>
<g>
</g>
<g>
</g>
<g>
</g>
<g>
</g>
<g>
</g>
<g>
</g>
<g>
</g>
<g>
</g>
<g>
</g>
<g>
</g>
</svg>
