<?xml version="1.0" encoding="iso-8859-1"?>
<!-- Generator: Adobe Illustrator 19.0.0, SVG Export Plug-In . SVG Version: 6.00 Build 0)  -->
<svg version="1.1" id="Layer_1" xmlns="http://www.w3.org/2000/svg" xmlns:xlink="http://www.w3.org/1999/xlink" x="0px" y="0px"
	 viewBox="0 0 512.001 512.001" style="enable-background:new 0 0 512.001 512.001;" xml:space="preserve">
<g>
	<path style="fill:#FEC986;" d="M256.002,55.847c-66.325,0-120.092-10.753-120.092-24.018v172.798
		c0,68.166,53.767,123.427,120.092,123.427c66.324,0,120.091-55.261,120.091-123.428V31.83
		C376.093,45.095,322.326,55.847,256.002,55.847z"/>
	<path style="fill:#FEC986;" d="M376.093,39.835c0,0-35.003,19.81-112.59,19.168C183.096,58.336,135.91,39.835,135.91,39.835"/>
</g>
<path style="fill:#C8546F;" d="M296.032,151.921c0,0,24.683-2.716,32.511-1.412c4.18,0.697,15.525,9.418,15.525,9.418v48.037
	c0,48.639-39.429,88.068-88.067,88.068c-48.639,0-88.068-39.429-88.068-88.068v-48.037
	C167.934,159.927,223.781,187.083,296.032,151.921z"/>
<path style="fill:#9B4573;" d="M344.068,159.927v48.037c0,28.663-13.693,54.128-34.895,70.21c-4.635,3.516-9.63,6.584-14.92,9.139
	V152.774C294.253,152.774,327.449,142.695,344.068,159.927z"/>
<ellipse style="fill:#FEB860;" cx="255.998" cy="31.83" rx="120.089" ry="24.016"/>
<g>
	<path style="fill:#1D1D1B;" d="M256.002,303.841c-52.867,0-95.878-43.011-95.878-95.878v-59.88l10.887,4.665
		c0.467,0.198,48.409,20.07,98.07-0.059c58.021-23.518,80.013,1.097,80.92,2.157l1.88,2.193v50.926
		C351.879,260.831,308.868,303.841,256.002,303.841z M175.745,170.879v37.085c0,44.253,36.003,80.257,80.256,80.257
		s80.257-36.003,80.257-80.257v-44.379c-5.61-3.717-23.621-11.695-61.31,3.58C233.525,183.954,194.196,176.325,175.745,170.879z"/>
	<path style="fill:#1D1D1B;" d="M342.45,7.186C319.278,2.552,288.577,0,256.001,0s-63.278,2.553-86.449,7.186
		c-28.28,5.657-41.453,13.488-41.453,24.644v176.134c0,67.902,53.19,123.606,120.092,127.657v144.55
		c0,8.937-7.27,16.208-16.208,16.208h-56.043v15.622h160.122v-15.622h-56.042c-8.937,0-16.208-7.27-16.208-16.208V335.62
		c66.901-4.051,120.091-59.754,120.091-127.657V31.83C383.903,20.674,370.731,12.843,342.45,7.186z M177.695,21.547
		c21.536-3.821,49.345-5.926,78.306-5.926c28.96,0,56.77,2.105,78.305,5.926c20.748,3.682,29.927,7.977,33.04,10.281
		c-3.112,2.304-12.291,6.6-33.04,10.281c-21.535,3.821-49.345,5.926-78.306,5.926c-28.962,0-56.771-2.105-78.306-5.926
		c-20.749-3.682-29.928-7.977-33.04-10.281C147.767,29.526,156.948,25.23,177.695,21.547z M368.282,207.964
		c0,61.912-50.368,112.281-112.281,112.281c-61.912-0.001-112.28-50.369-112.28-112.281V49.002
		c6.493,2.847,15.064,5.317,25.831,7.47c23.171,4.634,53.873,7.186,86.449,7.186s63.278-2.553,86.449-7.186
		c10.766-2.154,19.338-4.623,25.831-7.47v158.962H368.282z"/>
</g>
<g>
</g>
<g>
</g>
<g>
</g>
<g>
</g>
<g>
</g>
<g>
</g>
<g>
</g>
<g>
</g>
<g>
</g>
<g>
</g>
<g>
</g>
<g>
</g>
<g>
</g>
<g>
</g>
<g>
</g>
</svg>
